<svg version="1.1" id="Capa_1" xmlns="http://www.w3.org/2000/svg" xmlns:xlink="http://www.w3.org/1999/xlink" width="60px" height="60px"
	 viewBox="0 0 508 508" style="enable-background:new 0 0 508 508;" xml:space="preserve">
<g>
	<g>
		<path d="M376.7,0H131.3c2,61.4-43.6,101.1-98.2,98.2v68.4C37.6,423,254,508,254,508s214.3-85,220.9-341.4V98.2
			C407.9,103.9,371.7,41.3,376.7,0z M49.5,166.6v-52.4c52.1-4,93.9-45.7,97.9-97.9h98.5v106.8c-47.6,4-85.6,42-89.6,89.6H52.6
			C50.6,197.5,49.5,182.1,49.5,166.6z M245.8,485.9C144.9,434.8,74.6,338.7,55,229h101.2c4,47.6,42,85.6,89.6,89.6V485.9z
			 M172.2,220.9c0-45.1,36.7-81.8,81.8-81.8c45.1,0,81.8,36.7,81.8,81.8c0,45.1-36.7,81.8-81.8,81.8
			C208.9,302.7,172.2,266,172.2,220.9z M262.2,485.9V318.6c47.6-4,85.6-42,89.6-89.6H453C433.4,338.7,363.1,434.8,262.2,485.9z
			 M458.5,166.6c0,15.5-1.1,30.9-3.1,46.1H351.7c-4-47.6-42-85.6-89.6-89.6V16.4h98.5c4,52.1,45.8,93.8,97.9,97.8V166.6z"/>
	</g>
</g>
<g>
	<g>
		<polygon points="295.8,182.4 236.2,242 212.2,218.1 200.6,229.6 236.2,265.2 307.4,193.9 		"/>
	</g>
</g>
<g>
</g>
<g>
</g>
<g>
</g>
<g>
</g>
<g>
</g>
<g>
</g>
<g>
</g>
<g>
</g>
<g>
</g>
<g>
</g>
<g>
</g>
<g>
</g>
<g>
</g>
<g>
</g>
<g>
</g>
</svg>
